<svg xmlns:dc="http://purl.org/dc/elements/1.1/" xmlns:cc="http://creativecommons.org/ns#" xmlns:rdf="http://www.w3.org/1999/02/22-rdf-syntax-ns#" xmlns:svg="http://www.w3.org/2000/svg" xmlns="http://www.w3.org/2000/svg" xmlns:sodipodi="http://sodipodi.sourceforge.net/DTD/sodipodi-0.dtd" xmlns:inkscape="http://www.inkscape.org/namespaces/inkscape" version="1.1" x="0px" y="0px" viewBox="0 0 100 125"><g transform="translate(0,-952.36218)"><path style="text-indent:0;text-transform:none;direction:ltr;block-progression:tb;baseline-shift:baseline;color:white;enable-background:accumulate;" d="m 50,975.45593 c -18.7303,0 -34,15.26979 -34,33.99997 0,7.3794 2.3879,14.2296 6.4062,19.8125 l 6.25,-4.9375 C 25.7277,1020.1226 24,1014.995 24,1009.4559 c 0,-14.40668 11.5932,-25.99997 26,-25.99997 14.4068,0 26,11.59329 26,25.99997 0,5.5391 -1.7278,10.6667 -4.6562,14.875 l 6.25,4.9375 C 81.6119,1023.6855 84,1016.8353 84,1009.4559 84,990.72572 68.7303,975.45593 50,975.45593 z m 17.6875,25.31247 -21.2187,14.1563 c -1.9528,1.9527 -1.9528,5.1098 0,7.0624 1.9527,1.9527 5.11,1.9527 7.0624,0 l 14.1563,-21.2187 z" fill="white" fill-opacity="1" stroke="none" marker="none" visibility="visible" display="inline" overflow="visible"/></g></svg>