<?xml version="1.0" encoding="iso-8859-1"?>
<!-- Generator: Adobe Illustrator 19.0.0, SVG Export Plug-In . SVG Version: 6.00 Build 0)  -->
<svg version="1.1" id="Layer_1" xmlns="http://www.w3.org/2000/svg" xmlns:xlink="http://www.w3.org/1999/xlink" x="0px" y="0px"
	 viewBox="0 0 512 512" style="enable-background:new 0 0 512 512;" xml:space="preserve">
<g>
	<g>
		<g>
			<path d="M144.667,157.344c-7.375-9.198-20.771-10.708-30-3.333L8,239.344C2.938,243.385,0,249.521,0,256s2.938,12.615,8,16.656
				l106.667,85.333c3.938,3.146,8.646,4.677,13.313,4.677c6.271,0,12.458-2.74,16.688-8.01c7.354-9.198,5.854-22.625-3.333-29.979
				L55.479,256l85.854-68.677C150.521,179.969,152.021,166.542,144.667,157.344z"/>
			<path d="M501.333,170.667H202.667c-5.896,0-10.667,4.771-10.667,10.667v21.333c0,5.896,4.771,10.667,10.667,10.667h298.667
				c5.896,0,10.667-4.771,10.667-10.667v-21.333C512,175.438,507.229,170.667,501.333,170.667z"/>
			<path d="M501.333,298.667H202.667c-5.896,0-10.667,4.771-10.667,10.667v21.333c0,5.896,4.771,10.667,10.667,10.667h298.667
				c5.896,0,10.667-4.771,10.667-10.667v-21.333C512,303.438,507.229,298.667,501.333,298.667z"/>
			<path d="M501.333,426.667H10.667C4.771,426.667,0,431.438,0,437.333v21.333c0,5.896,4.771,10.667,10.667,10.667h490.667
				c5.896,0,10.667-4.771,10.667-10.667v-21.333C512,431.438,507.229,426.667,501.333,426.667z"/>
			<path d="M501.333,42.667H10.667C4.771,42.667,0,47.438,0,53.333v21.333c0,5.896,4.771,10.667,10.667,10.667h490.667
				c5.896,0,10.667-4.771,10.667-10.667V53.333C512,47.438,507.229,42.667,501.333,42.667z"/>
		</g>
	</g>
</g>
<g>
</g>
<g>
</g>
<g>
</g>
<g>
</g>
<g>
</g>
<g>
</g>
<g>
</g>
<g>
</g>
<g>
</g>
<g>
</g>
<g>
</g>
<g>
</g>
<g>
</g>
<g>
</g>
<g>
</g>
</svg>
