<?xml version="1.0" encoding="iso-8859-1"?>
<!-- Generator: Adobe Illustrator 19.0.0, SVG Export Plug-In . SVG Version: 6.00 Build 0)  -->
<svg version="1.1" id="Layer_1" xmlns="http://www.w3.org/2000/svg" xmlns:xlink="http://www.w3.org/1999/xlink" x="0px" y="0px"
	 viewBox="0 0 512.002 512.002" style="enable-background:new 0 0 512.002 512.002;" xml:space="preserve">
<g>
	<g>
		<g>
			<path d="M4.679,354.657c4.208,5.271,10.406,8.01,16.667,8.01c4.677,0,9.385-1.531,13.313-4.677l106.667-85.333
				c5.063-4.042,8.01-10.177,8.01-16.656s-2.948-12.615-8.01-16.656L34.658,154.012c-9.177-7.354-22.625-5.896-29.979,3.333
				c-7.365,9.198-5.875,22.625,3.333,29.979l85.844,68.677L8.013,324.678C-1.196,332.032-2.685,345.46,4.679,354.657z"/>
			<path d="M501.336,170.668H202.669c-5.896,0-10.667,4.771-10.667,10.667v21.333c0,5.896,4.771,10.667,10.667,10.667h298.667
				c5.896,0,10.667-4.771,10.667-10.667v-21.333C512.002,175.439,507.231,170.668,501.336,170.668z"/>
			<path d="M501.336,298.668H202.669c-5.896,0-10.667,4.771-10.667,10.667v21.333c0,5.896,4.771,10.667,10.667,10.667h298.667
				c5.896,0,10.667-4.771,10.667-10.667v-21.333C512.002,303.439,507.231,298.668,501.336,298.668z"/>
			<path d="M501.336,426.668H10.669c-5.896,0-10.667,4.771-10.667,10.667v21.333c0,5.896,4.771,10.667,10.667,10.667h490.667
				c5.896,0,10.667-4.771,10.667-10.667v-21.333C512.002,431.439,507.231,426.668,501.336,426.668z"/>
			<path d="M501.336,42.668H10.669c-5.896,0-10.667,4.771-10.667,10.667v21.333c0,5.896,4.771,10.667,10.667,10.667h490.667
				c5.896,0,10.667-4.771,10.667-10.667V53.334C512.002,47.439,507.231,42.668,501.336,42.668z"/>
		</g>
	</g>
</g>
<g>
</g>
<g>
</g>
<g>
</g>
<g>
</g>
<g>
</g>
<g>
</g>
<g>
</g>
<g>
</g>
<g>
</g>
<g>
</g>
<g>
</g>
<g>
</g>
<g>
</g>
<g>
</g>
<g>
</g>
</svg>
